{
  "source": "C:\\Users\\Peter\\Desktop\\stuff\\MIUN\\quantitative_research\\video_compression\\videos\\BVI-HD\\BubblesPitcher_1920x1080_60fps.mp4",
  "output": "C:\\Users\\Peter\\Desktop\\stuff\\MIUN\\quantitative_research\\video_compression\\compressed_videos\\BVI-HD\\av1\\12\\BubblesPitcher_1920x1080_60fps_av1.mkv",
  "codec": "av1",
  "ok": "Input #0, mov,mp4,m4a,3gp,3g2,mj2, from 'C:\\Users\\Peter\\Desktop\\stuff\\MIUN\\quantitative_research\\video_compression\\videos\\BVI-HD\\BubblesPitcher_1920x1080_60fps.mp4':\n  Metadata:\n    major_brand     : isom\n    minor_version   : 512\n    compatible_brands: isomiso2avc1mp41\n    encoder         : Lavf54.28.101\n  Duration: 00:00:05.00, start: 0.000000, bitrate: 188849 kb/s\n  Stream #0:0[0x1](und): Video: h264 (High 4:4:4 Predictive) (avc1 / 0x31637661), yuv420p(progressive), 1920x1080, 188844 kb/s, 60 fps, 60 tbr, 60 tbn (default)\n    Metadata:\n      handler_name    : VideoHandler\n      vendor_id       : [0][0][0][0]\n[out#0/matroska @ 00000227785494c0] Codec AVOption b:a (set bitrate (in bits/s)) has not been used for any stream. The most likely reason is either wrong type (e.g. a video option with no video streams) or that it is a private option of some decoder which was not actually used for any stream.\nStream mapping:\n  Stream #0:0 -> #0:0 (h264 (native) -> av1 (libsvtav1))\nPress [q] to stop, [?] for help\nSvt[info]: -------------------------------------------\nSvt[info]: SVT [version]:\tSVT-AV1 Encoder Lib v3.1.0-19-g6ecfe8ec\nSvt[info]: SVT [build]  :\tGCC 15.2.0\t 64 bit\nSvt[info]: LIB Build date: Aug 17 2025 11:37:13\nSvt[info]: -------------------------------------------\nSvt[info]: Level of Parallelism: 5\nSvt[info]: Number of PPCS 93\nSvt[info]: [asm level on system : up to avx2]\nSvt[info]: [asm level selected : up to avx2]\nSvt[info]: -------------------------------------------\nSvt[info]: SVT [config]: main profile\ttier (auto)\tlevel (auto)\nSvt[info]: SVT [config]: width / height / fps numerator / fps denominator \t\t: 1920 / 1080 / 60 / 1\nSvt[info]: SVT [config]: bit-depth / color format \t\t\t\t\t: 8 / YUV420\nSvt[info]: SVT [config]: preset / tune / pred struct \t\t\t\t\t: 4 / PSNR / random access\nSvt[info]: SVT [config]: gop size / mini-gop size / key-frame type \t\t\t: 321 / 16 / key frame\nSvt[info]: SVT [config]: BRC mode / target bitrate (kbps)\t\t\t\t: VBR / 12000 \nSvt[info]: SVT [config]: AQ mode / Variance Boost \t\t\t\t\t: 2 / 0\nSvt[info]: SVT [config]: sharpness / luminance-based QP bias \t\t\t\t: 0 / 0\nSvt[info]: SVT [config]: QP scale compress strength \t\t\t\t\t: 0\nSvt[info]: -------------------------------------------\nOutput #0, matroska, to 'C:\\Users\\Peter\\Desktop\\stuff\\MIUN\\quantitative_research\\video_compression\\compressed_videos\\BVI-HD\\av1\\12\\BubblesPitcher_1920x1080_60fps_av1.mkv':\n  Metadata:\n    major_brand     : isom\n    minor_version   : 512\n    compatible_brands: isomiso2avc1mp41\n    encoder         : Lavf62.3.100\n  Stream #0:0(und): Video: av1 (AV01 / 0x31305641), yuv420p(tv, progressive), 1920x1080, q=2-31, 12000 kb/s, 60 fps, 1k tbn (default)\n    Metadata:\n      encoder         : Lavc62.11.100 libsvtav1\n      handler_name    : VideoHandler\n      vendor_id       : [0][0][0][0]\n    Side data:\n      cpb: bitrate max/min/avg: 0/0/12000000 buffer size: 12000000 vbv_delay: N/A\nframe=    0 fps=0.0 q=0.0 size=       0KiB time=N/A bitrate=N/A speed=N/A elapsed=0:00:01.63    \nframe=    0 fps=0.0 q=0.0 size=       0KiB time=N/A bitrate=N/A speed=N/A elapsed=0:00:02.34    \nframe=    0 fps=0.0 q=0.0 size=       0KiB time=N/A bitrate=N/A speed=N/A elapsed=0:00:02.91    \nframe=    0 fps=0.0 q=0.0 size=       0KiB time=N/A bitrate=N/A speed=N/A elapsed=0:00:03.50    \nframe=    0 fps=0.0 q=0.0 size=       0KiB time=N/A bitrate=N/A speed=N/A elapsed=0:00:04.02    \nframe=    0 fps=0.0 q=0.0 size=       0KiB time=N/A bitrate=N/A speed=N/A elapsed=0:00:04.57    \nframe=    0 fps=0.0 q=0.0 size=       0KiB time=N/A bitrate=N/A speed=N/A elapsed=0:00:05.15    \nframe=    0 fps=0.0 q=0.0 size=       0KiB time=N/A bitrate=N/A speed=N/A elapsed=0:00:05.72    \nframe=    0 fps=0.0 q=0.0 size=       0KiB time=N/A bitrate=N/A speed=N/A elapsed=0:00:06.25    \nframe=    0 fps=0.0 q=0.0 size=       0KiB time=N/A bitrate=N/A speed=N/A elapsed=0:00:06.96    \nframe=    0 fps=0.0 q=0.0 size=       0KiB time=N/A bitrate=N/A speed=N/A elapsed=0:00:07.57    \nframe=    0 fps=0.0 q=0.0 size=       0KiB time=N/A bitrate=N/A speed=N/A elapsed=0:00:08.13    \nframe=    0 fps=0.0 q=0.0 size=       0KiB time=N/A bitrate=N/A speed=N/A elapsed=0:00:08.79    \nframe=    1 fps=0.1 q=1.0 size=       1KiB time=00:00:00.00 bitrate=N/A speed=   0x elapsed=0:00:09.33    \nframe=    1 fps=0.1 q=1.0 size=       1KiB time=00:00:00.00 bitrate=N/A speed=   0x elapsed=0:00:09.94    \nframe=    2 fps=0.2 q=15.0 size=       1KiB time=00:00:00.01 bitrate= 341.8kbits/s speed=0.00158x elapsed=0:00:10.55    \nframe=    5 fps=0.5 q=11.0 size=       1KiB time=00:00:00.06 bitrate=  85.4kbits/s speed=0.006x elapsed=0:00:11.10    \nframe=    7 fps=0.6 q=11.0 size=       1KiB time=00:00:00.10 bitrate=  57.0kbits/s speed=0.00858x elapsed=0:00:11.65    \nframe=    9 fps=0.7 q=8.0 size=       1KiB time=00:00:00.11 bitrate=  48.8kbits/s speed=0.00952x elapsed=0:00:12.24    \nframe=   11 fps=0.9 q=11.0 size=       1KiB time=00:00:00.16 bitrate=  34.2kbits/s speed=0.013x elapsed=0:00:12.86    \nframe=   13 fps=1.0 q=9.0 size=       1KiB time=00:00:00.20 bitrate=  28.5kbits/s speed=0.0148x elapsed=0:00:13.49    \nframe=   15 fps=1.1 q=10.0 size=       1KiB time=00:00:00.23 bitrate=  24.4kbits/s speed=0.0166x elapsed=0:00:14.07    \nframe=   18 fps=1.2 q=10.0 size=       1KiB time=00:00:00.28 bitrate=  20.1kbits/s speed=0.0193x elapsed=0:00:14.67    \nframe=   20 fps=1.3 q=9.0 size=       1KiB time=00:00:00.31 bitrate=  18.0kbits/s speed=0.0207x elapsed=0:00:15.27    \nframe=   21 fps=1.3 q=10.0 size=       1KiB time=00:00:00.33 bitrate=  17.1kbits/s speed=0.0211x elapsed=0:00:15.83    \nframe=   21 fps=1.3 q=10.0 size=       1KiB time=00:00:00.33 bitrate=  17.1kbits/s speed=0.0204x elapsed=0:00:16.37    \nframe=   24 fps=1.4 q=13.0 size=       1KiB time=00:00:00.36 bitrate=  15.5kbits/s speed=0.0216x elapsed=0:00:16.99    \nframe=   25 fps=1.4 q=7.0 size=       1KiB time=00:00:00.40 bitrate=  14.2kbits/s speed=0.0227x elapsed=0:00:17.63    \nframe=   28 fps=1.5 q=12.0 size=       1KiB time=00:00:00.45 bitrate=  12.7kbits/s speed=0.0248x elapsed=0:00:18.15    \nframe=   30 fps=1.6 q=14.0 size=       1KiB time=00:00:00.48 bitrate=  11.8kbits/s speed=0.0259x elapsed=0:00:18.68    \nframe=   31 fps=1.6 q=10.0 size=       1KiB time=00:00:00.50 bitrate=  11.4kbits/s speed=0.026x elapsed=0:00:19.20    \nframe=   33 fps=1.7 q=4.0 size=       1KiB time=00:00:00.53 bitrate=  10.7kbits/s speed=0.027x elapsed=0:00:19.72    \nframe=   35 fps=1.7 q=11.0 size=       1KiB time=00:00:00.56 bitrate=  10.1kbits/s speed=0.028x elapsed=0:00:20.24    \nframe=   36 fps=1.7 q=11.0 size=       1KiB time=00:00:00.58 bitrate=   9.8kbits/s speed=0.0281x elapsed=0:00:20.76    \nframe=   37 fps=1.7 q=9.0 size=       1KiB time=00:00:00.60 bitrate=   9.5kbits/s speed=0.0282x elapsed=0:00:21.28    \nframe=   37 fps=1.7 q=9.0 size=       1KiB time=00:00:00.60 bitrate=   9.5kbits/s speed=0.0275x elapsed=0:00:21.81    \nframe=   39 fps=1.7 q=10.0 size=       1KiB time=00:00:00.63 bitrate=   9.0kbits/s speed=0.0282x elapsed=0:00:22.42    \nframe=   41 fps=1.8 q=5.0 size=       1KiB time=00:00:00.66 bitrate=   8.5kbits/s speed=0.0289x elapsed=0:00:23.05    \nframe=   44 fps=1.9 q=14.0 size=       1KiB time=00:00:00.71 bitrate=   7.9kbits/s speed=0.0303x elapsed=0:00:23.68    \nframe=   46 fps=1.9 q=15.0 size=       1KiB time=00:00:00.75 bitrate=   7.6kbits/s speed=0.0308x elapsed=0:00:24.34    \nframe=   49 fps=2.0 q=4.0 size=       1KiB time=00:00:00.76 bitrate=   7.4kbits/s speed=0.0308x elapsed=0:00:24.90    \nframe=   50 fps=2.0 q=15.0 size=       1KiB time=00:00:00.81 bitrate=   7.0kbits/s speed=0.0321x elapsed=0:00:25.45    \nframe=   52 fps=2.0 q=15.0 size=       1KiB time=00:00:00.85 bitrate=   6.7kbits/s speed=0.0326x elapsed=0:00:26.08    \nframe=   53 fps=2.0 q=9.0 size=       1KiB time=00:00:00.86 bitrate=   6.6kbits/s speed=0.0325x elapsed=0:00:26.67    \nframe=   53 fps=1.9 q=9.0 size=       1KiB time=00:00:00.86 bitrate=   6.6kbits/s speed=0.0318x elapsed=0:00:27.23    \nframe=   55 fps=2.0 q=10.0 size=       1KiB time=00:00:00.90 bitrate=   6.3kbits/s speed=0.0324x elapsed=0:00:27.78    \nframe=   57 fps=2.0 q=4.0 size=       1KiB time=00:00:00.93 bitrate=   6.1kbits/s speed=0.033x elapsed=0:00:28.30    \nframe=   58 fps=2.0 q=15.0 size=       1KiB time=00:00:00.95 bitrate=   6.0kbits/s speed=0.033x elapsed=0:00:28.82    \nframe=   60 fps=2.0 q=15.0 size=       1KiB time=00:00:00.98 bitrate=   5.8kbits/s speed=0.0335x elapsed=0:00:29.36    \nframe=   63 fps=2.1 q=12.0 size=       1KiB time=00:00:01.03 bitrate=   5.5kbits/s speed=0.0346x elapsed=0:00:29.88    \nframe=   65 fps=2.1 q=2.0 size=       1KiB time=00:00:01.06 bitrate=   5.3kbits/s speed=0.0351x elapsed=0:00:30.41    \nframe=   66 fps=2.1 q=15.0 size=       1KiB time=00:00:01.08 bitrate=   5.3kbits/s speed=0.035x elapsed=0:00:30.93    \nframe=   68 fps=2.2 q=15.0 size=       1KiB time=00:00:01.11 bitrate=   5.1kbits/s speed=0.0355x elapsed=0:00:31.44    \nframe=   68 fps=2.1 q=15.0 size=       1KiB time=00:00:01.11 bitrate=   5.1kbits/s speed=0.0349x elapsed=0:00:31.99    \nframe=   69 fps=2.1 q=11.0 size=       1KiB time=00:00:01.13 bitrate=   5.0kbits/s speed=0.0348x elapsed=0:00:32.54    \nframe=   70 fps=2.1 q=14.0 size=       1KiB time=00:00:01.15 bitrate=   5.0kbits/s speed=0.0347x elapsed=0:00:33.15    \nframe=   73 fps=2.2 q=5.0 size=       1KiB time=00:00:01.20 bitrate=   4.7kbits/s speed=0.0356x elapsed=0:00:33.74    \nframe=   75 fps=2.2 q=12.0 size=       1KiB time=00:00:01.23 bitrate=   4.6kbits/s speed=0.0359x elapsed=0:00:34.33    \nframe=   80 fps=2.3 q=15.0 size=       1KiB time=00:00:01.31 bitrate=   4.3kbits/s speed=0.0377x elapsed=0:00:34.88    \nframe=   83 fps=2.3 q=15.0 size=       1KiB time=00:00:01.36 bitrate=   4.2kbits/s speed=0.0385x elapsed=0:00:35.45    \nframe=   84 fps=2.3 q=14.0 size=       1KiB time=00:00:01.38 bitrate=   4.1kbits/s speed=0.0383x elapsed=0:00:36.16    \nframe=   85 fps=2.3 q=13.0 size=       1KiB time=00:00:01.40 bitrate=   4.1kbits/s speed=0.0381x elapsed=0:00:36.74    \nframe=   88 fps=2.4 q=15.0 size=       1KiB time=00:00:01.45 bitrate=   3.9kbits/s speed=0.0388x elapsed=0:00:37.33    \nframe=   91 fps=2.4 q=15.0 size=       1KiB time=00:00:01.50 bitrate=   3.8kbits/s speed=0.0396x elapsed=0:00:37.87    \nframe=   94 fps=2.4 q=16.0 size=       1KiB time=00:00:01.55 bitrate=   3.7kbits/s speed=0.0403x elapsed=0:00:38.48    \nframe=   97 fps=2.5 q=1.0 size=       1KiB time=00:00:01.60 bitrate=   3.6kbits/s speed=0.041x elapsed=0:00:39.01    \nframe=   99 fps=2.5 q=17.0 size=       1KiB time=00:00:01.63 bitrate=   3.5kbits/s speed=0.0412x elapsed=0:00:39.61    \nframe=  100 fps=2.5 q=17.0 size=       1KiB time=00:00:01.65 bitrate=   3.5kbits/s speed=0.0409x elapsed=0:00:40.29    \nframe=  102 fps=2.5 q=16.0 size=       1KiB time=00:00:01.68 bitrate=   3.4kbits/s speed=0.0411x elapsed=0:00:40.94    \nframe=  105 fps=2.5 q=8.0 size=       1KiB time=00:00:01.73 bitrate=   3.3kbits/s speed=0.0418x elapsed=0:00:41.51    \nframe=  107 fps=2.5 q=17.0 size=       1KiB time=00:00:01.76 bitrate=   3.2kbits/s speed=0.042x elapsed=0:00:42.07    \nframe=  110 fps=2.6 q=18.0 size=       1KiB time=00:00:01.81 bitrate=   3.1kbits/s speed=0.0426x elapsed=0:00:42.64    \nframe=  115 fps=2.7 q=18.0 size=       1KiB time=00:00:01.90 bitrate=   3.0kbits/s speed=0.044x elapsed=0:00:43.19    \nframe=  116 fps=2.6 q=18.0 size=       1KiB time=00:00:01.90 bitrate=   3.0kbits/s speed=0.0433x elapsed=0:00:43.83    \nframe=  116 fps=2.6 q=18.0 size=       1KiB time=00:00:01.91 bitrate=   3.0kbits/s speed=0.0431x elapsed=0:00:44.50    \nframe=  120 fps=2.7 q=18.0 size=       1KiB time=00:00:01.96 bitrate=   2.9kbits/s speed=0.0437x elapsed=0:00:45.05    \nframe=  122 fps=2.7 q=19.0 size=       1KiB time=00:00:02.01 bitrate=   2.8kbits/s speed=0.0442x elapsed=0:00:45.64    \nframe=  126 fps=2.7 q=19.0 size=       1KiB time=00:00:02.08 bitrate=   2.7kbits/s speed=0.0451x elapsed=0:00:46.23    \nframe=  129 fps=2.8 q=3.0 size=       1KiB time=00:00:02.13 bitrate=   2.7kbits/s speed=0.0456x elapsed=0:00:46.82    \nframe=  131 fps=2.8 q=18.0 size=       1KiB time=00:00:02.16 bitrate=   2.6kbits/s speed=0.0457x elapsed=0:00:47.37    \nframe=  131 fps=2.7 q=18.0 size=       1KiB time=00:00:02.16 bitrate=   2.6kbits/s speed=0.045x elapsed=0:00:48.10    \nframe=  132 fps=2.7 q=19.0 size=       1KiB time=00:00:02.18 bitrate=   2.6kbits/s speed=0.0448x elapsed=0:00:48.73    \nframe=  134 fps=2.7 q=19.0 size=       1KiB time=00:00:02.21 bitrate=   2.6kbits/s speed=0.045x elapsed=0:00:49.30    \nframe=  137 fps=2.7 q=14.0 size=       1KiB time=00:00:02.26 bitrate=   2.5kbits/s speed=0.0454x elapsed=0:00:49.88    \nframe=  139 fps=2.8 q=19.0 size=       1KiB time=00:00:02.30 bitrate=   2.5kbits/s speed=0.0456x elapsed=0:00:50.45    \nframe=  142 fps=2.8 q=24.0 size=       1KiB time=00:00:02.35 bitrate=   2.4kbits/s speed=0.0461x elapsed=0:00:51.02    \nframe=  145 fps=2.8 q=7.0 size=       1KiB time=00:00:02.40 bitrate=   2.4kbits/s speed=0.0465x elapsed=0:00:51.58    \nframe=  147 fps=2.8 q=23.0 size=       1KiB time=00:00:02.43 bitrate=   2.3kbits/s speed=0.0466x elapsed=0:00:52.17    \nframe=  148 fps=2.8 q=24.0 size=       1KiB time=00:00:02.45 bitrate=   2.3kbits/s speed=0.0463x elapsed=0:00:52.86    \nframe=  148 fps=2.8 q=24.0 size=       1KiB time=00:00:02.45 bitrate=   2.3kbits/s speed=0.0458x elapsed=0:00:53.54    \nframe=  150 fps=2.8 q=25.0 size=       1KiB time=00:00:02.48 bitrate=   2.3kbits/s speed=0.0459x elapsed=0:00:54.07    \nframe=  153 fps=2.8 q=17.0 size=       1KiB time=00:00:02.53 bitrate=   2.2kbits/s speed=0.0464x elapsed=0:00:54.64    \nframe=  155 fps=2.8 q=24.0 size=       1KiB time=00:00:02.56 bitrate=   2.2kbits/s speed=0.0465x elapsed=0:00:55.19    \nframe=  158 fps=2.8 q=28.0 size=       1KiB time=00:00:02.61 bitrate=   2.2kbits/s speed=0.0469x elapsed=0:00:55.76    \nframe=  161 fps=2.9 q=10.0 size=       1KiB time=00:00:02.66 bitrate=   2.1kbits/s speed=0.0473x elapsed=0:00:56.33    \nframe=  163 fps=2.9 q=27.0 size=       1KiB time=00:00:02.70 bitrate=   2.1kbits/s speed=0.0474x elapsed=0:00:56.91    \nframe=  163 fps=2.8 q=27.0 size=       1KiB time=00:00:02.70 bitrate=   2.1kbits/s speed=0.0469x elapsed=0:00:57.58    \nframe=  164 fps=2.8 q=28.0 size=       1KiB time=00:00:02.71 bitrate=   2.1kbits/s speed=0.0467x elapsed=0:00:58.13    \nframe=  164 fps=2.8 q=28.0 size=       1KiB time=00:00:02.71 bitrate=   2.1kbits/s speed=0.0463x elapsed=0:00:58.64    \nframe=  166 fps=2.8 q=28.0 size=       1KiB time=00:00:02.75 bitrate=   2.1kbits/s speed=0.0465x elapsed=0:00:59.19    \nframe=  169 fps=2.8 q=21.0 size=       1KiB time=00:00:02.80 bitrate=   2.0kbits/s speed=0.0468x elapsed=0:00:59.79    \nframe=  171 fps=2.8 q=26.0 size=       1KiB time=00:00:02.83 bitrate=   2.0kbits/s speed=0.047x elapsed=0:01:00.33    \nframe=  173 fps=2.8 q=23.0 size=       1KiB time=00:00:02.86 bitrate=   2.0kbits/s speed=0.0471x elapsed=0:01:00.90    \nframe=  174 fps=2.8 q=28.0 size=       1KiB time=00:00:02.88 bitrate=   2.0kbits/s speed=0.0469x elapsed=0:01:01.42    \nframe=  177 fps=2.9 q=12.0 size=       1KiB time=00:00:02.93 bitrate=   1.9kbits/s speed=0.0473x elapsed=0:01:01.99    \nframe=  179 fps=2.9 q=23.0 size=       1KiB time=00:00:02.96 bitrate=   1.9kbits/s speed=0.0474x elapsed=0:01:02.56    \nframe=  179 fps=2.8 q=23.0 size=       1KiB time=00:00:02.96 bitrate=   1.9kbits/s speed=0.047x elapsed=0:01:03.17    \nframe=  179 fps=2.8 q=23.0 size=       1KiB time=00:00:02.96 bitrate=   1.9kbits/s speed=0.0465x elapsed=0:01:03.74    \nframe=  180 fps=2.8 q=28.0 size=       1KiB time=00:00:02.98 bitrate=   1.9kbits/s speed=0.0464x elapsed=0:01:04.29    \nframe=  182 fps=2.8 q=28.0 size=       1KiB time=00:00:03.01 bitrate=   1.9kbits/s speed=0.0465x elapsed=0:01:04.86    \nframe=  182 fps=2.8 q=28.0 size=       1KiB time=00:00:03.01 bitrate=   1.9kbits/s speed=0.0461x elapsed=0:01:05.46    \nframe=  186 fps=2.8 q=29.0 size=       1KiB time=00:00:03.08 bitrate=   1.8kbits/s speed=0.0467x elapsed=0:01:06.00    \nframe=  187 fps=2.8 q=26.0 size=       1KiB time=00:00:03.10 bitrate=   1.8kbits/s speed=0.0466x elapsed=0:01:06.55    \nframe=  190 fps=2.8 q=29.0 size=       1KiB time=00:00:03.15 bitrate=   1.8kbits/s speed=0.0469x elapsed=0:01:07.11    \nframe=  190 fps=2.8 q=29.0 size=       1KiB time=00:00:03.15 bitrate=   1.8kbits/s speed=0.0466x elapsed=0:01:07.65    \nframe=  193 fps=2.8 q=14.0 size=       1KiB time=00:00:03.20 bitrate=   1.8kbits/s speed=0.0469x elapsed=0:01:08.18    \nframe=  195 fps=2.8 q=28.0 size=    5120KiB time=00:00:03.23 bitrate=12972.1kbits/s speed=0.047x elapsed=0:01:08.73    \nframe=  195 fps=2.8 q=28.0 size=    5120KiB time=00:00:03.23 bitrate=12972.1kbits/s speed=0.0466x elapsed=0:01:09.36    \nframe=  195 fps=2.8 q=28.0 size=    5120KiB time=00:00:03.23 bitrate=12972.1kbits/s speed=0.0462x elapsed=0:01:09.98    \nframe=  196 fps=2.8 q=29.0 size=    5120KiB time=00:00:03.25 bitrate=12905.6kbits/s speed=0.0461x elapsed=0:01:10.53    \nframe=  198 fps=2.8 q=29.0 size=    5120KiB time=00:00:03.28 bitrate=12774.5kbits/s speed=0.0461x elapsed=0:01:11.15    \nframe=  198 fps=2.8 q=29.0 size=    5120KiB time=00:00:03.28 bitrate=12774.5kbits/s speed=0.0457x elapsed=0:01:11.79    \nframe=  205 fps=2.8 q=24.0 size=    5120KiB time=00:00:03.40 bitrate=12336.2kbits/s speed=0.047x elapsed=0:01:12.39    \nframe=  205 fps=2.8 q=24.0 size=    5120KiB time=00:00:03.40 bitrate=12336.2kbits/s speed=0.0466x elapsed=0:01:13.03    \nframe=  205 fps=2.8 q=24.0 size=    5120KiB time=00:00:03.40 bitrate=12336.2kbits/s speed=0.0461x elapsed=0:01:13.70    \nframe=  209 fps=2.8 q=17.0 size=    5120KiB time=00:00:03.46 bitrate=12099.0kbits/s speed=0.0467x elapsed=0:01:14.27    \nframe=  209 fps=2.8 q=17.0 size=    5120KiB time=00:00:03.46 bitrate=12099.0kbits/s speed=0.0463x elapsed=0:01:14.87    \nframe=  213 fps=2.8 q=28.0 size=    5120KiB time=00:00:03.53 bitrate=11870.7kbits/s speed=0.0468x elapsed=0:01:15.42    \nframe=  217 fps=2.9 q=24.0 size=    5120KiB time=00:00:03.60 bitrate=11650.8kbits/s speed=0.0474x elapsed=0:01:15.95    \nframe=  217 fps=2.8 q=24.0 size=    5120KiB time=00:00:03.60 bitrate=11650.8kbits/s speed=0.0471x elapsed=0:01:16.49    \nframe=  217 fps=2.8 q=24.0 size=    5120KiB time=00:00:03.60 bitrate=11650.8kbits/s speed=0.0467x elapsed=0:01:17.04    \nframe=  217 fps=2.8 q=24.0 size=    5120KiB time=00:00:03.60 bitrate=11650.8kbits/s speed=0.0463x elapsed=0:01:17.67    \nframe=  217 fps=2.8 q=24.0 size=    5120KiB time=00:00:03.60 bitrate=11650.8kbits/s speed=0.046x elapsed=0:01:18.26    \nframe=  221 fps=2.8 q=27.0 size=    5120KiB time=00:00:03.66 bitrate=11439.0kbits/s speed=0.0465x elapsed=0:01:18.83    \nframe=  221 fps=2.8 q=27.0 size=    5120KiB time=00:00:03.66 bitrate=11439.0kbits/s speed=0.0462x elapsed=0:01:19.35    \nframe=  221 fps=2.8 q=27.0 size=    5120KiB time=00:00:03.66 bitrate=11439.0kbits/s speed=0.0459x elapsed=0:01:19.88    \nframe=  225 fps=2.8 q=17.0 size=    5120KiB time=00:00:03.73 bitrate=11234.7kbits/s speed=0.0464x elapsed=0:01:20.44    \nframe=  225 fps=2.8 q=17.0 size=    5120KiB time=00:00:03.73 bitrate=11234.7kbits/s speed=0.0461x elapsed=0:01:21.00    \nframe=  225 fps=2.8 q=17.0 size=    5120KiB time=00:00:03.73 bitrate=11234.7kbits/s speed=0.0457x elapsed=0:01:21.64    \nframe=  229 fps=2.8 q=30.0 size=    5120KiB time=00:00:03.80 bitrate=11037.6kbits/s speed=0.0462x elapsed=0:01:22.28    \nframe=  229 fps=2.8 q=30.0 size=    5120KiB time=00:00:03.80 bitrate=11037.6kbits/s speed=0.0459x elapsed=0:01:22.86    \nframe=  233 fps=2.8 q=27.0 size=    5120KiB time=00:00:03.86 bitrate=10847.3kbits/s speed=0.0463x elapsed=0:01:23.44    \nframe=  233 fps=2.8 q=27.0 size=    5120KiB time=00:00:03.86 bitrate=10847.3kbits/s speed=0.046x elapsed=0:01:24.03    \nframe=  233 fps=2.8 q=27.0 size=    5120KiB time=00:00:03.86 bitrate=10847.3kbits/s speed=0.0457x elapsed=0:01:24.65    \nframe=  233 fps=2.7 q=27.0 size=    5120KiB time=00:00:03.86 bitrate=10847.3kbits/s speed=0.0454x elapsed=0:01:25.24    \nframe=  233 fps=2.7 q=27.0 size=    5120KiB time=00:00:03.86 bitrate=10847.3kbits/s speed=0.045x elapsed=0:01:25.89    \nframe=  237 fps=2.7 q=30.0 size=    5120KiB time=00:00:03.93 bitrate=10663.5kbits/s speed=0.0455x elapsed=0:01:26.49    \nframe=  237 fps=2.7 q=30.0 size=    5120KiB time=00:00:03.93 bitrate=10663.5kbits/s speed=0.0452x elapsed=0:01:27.06    \nframe=  237 fps=2.7 q=30.0 size=    5120KiB time=00:00:03.93 bitrate=10663.5kbits/s speed=0.0449x elapsed=0:01:27.68    \nframe=  241 fps=2.7 q=18.0 size=    5120KiB time=00:00:04.00 bitrate=10485.8kbits/s speed=0.0453x elapsed=0:01:28.28    \nframe=  241 fps=2.7 q=18.0 size=    5120KiB time=00:00:04.00 bitrate=10485.8kbits/s speed=0.045x elapsed=0:01:28.84    \nframe=  245 fps=2.7 q=31.0 size=    5120KiB time=00:00:04.06 bitrate=10313.9kbits/s speed=0.0454x elapsed=0:01:29.48    \nframe=  245 fps=2.7 q=31.0 size=    5120KiB time=00:00:04.06 bitrate=10313.9kbits/s speed=0.0452x elapsed=0:01:30.03    \nframe=  249 fps=2.7 q=30.0 size=    5120KiB time=00:00:04.13 bitrate=10147.5kbits/s speed=0.0456x elapsed=0:01:30.63    \nframe=  249 fps=2.7 q=30.0 size=    5120KiB time=00:00:04.13 bitrate=10147.5kbits/s speed=0.0453x elapsed=0:01:31.23    \nframe=  249 fps=2.7 q=30.0 size=    5120KiB time=00:00:04.13 bitrate=10147.5kbits/s speed=0.045x elapsed=0:01:31.80    \nframe=  249 fps=2.7 q=30.0 size=    5120KiB time=00:00:04.13 bitrate=10147.5kbits/s speed=0.0447x elapsed=0:01:32.40    \nframe=  249 fps=2.7 q=30.0 size=    5120KiB time=00:00:04.13 bitrate=10147.5kbits/s speed=0.0444x elapsed=0:01:33.02    \nframe=  249 fps=2.7 q=30.0 size=    5120KiB time=00:00:04.13 bitrate=10147.5kbits/s speed=0.0441x elapsed=0:01:33.63    \nframe=  253 fps=2.7 q=31.0 size=    5120KiB time=00:00:04.20 bitrate=9986.4kbits/s speed=0.0446x elapsed=0:01:34.20    \nframe=  253 fps=2.7 q=31.0 size=    5120KiB time=00:00:04.20 bitrate=9986.4kbits/s speed=0.0443x elapsed=0:01:34.77    \nframe=  255 fps=2.7 q=31.0 size=    5120KiB time=00:00:04.20 bitrate=9986.4kbits/s speed=0.044x elapsed=0:01:35.36    \nframe=  257 fps=2.7 q=21.0 size=    5120KiB time=00:00:04.26 bitrate=9830.4kbits/s speed=0.0445x elapsed=0:01:35.95    \nframe=  257 fps=2.7 q=21.0 size=    5120KiB time=00:00:04.26 bitrate=9830.4kbits/s speed=0.0442x elapsed=0:01:36.55    \nframe=  261 fps=2.7 q=31.0 size=    5120KiB time=00:00:04.33 bitrate=9679.2kbits/s speed=0.0446x elapsed=0:01:37.08    \nframe=  261 fps=2.7 q=31.0 size=    5120KiB time=00:00:04.33 bitrate=9679.2kbits/s speed=0.0444x elapsed=0:01:37.60    \nframe=  265 fps=2.7 q=30.0 size=    5120KiB time=00:00:04.40 bitrate=9532.5kbits/s speed=0.0448x elapsed=0:01:38.13    \nframe=  265 fps=2.7 q=30.0 size=    5120KiB time=00:00:04.40 bitrate=9532.5kbits/s speed=0.0446x elapsed=0:01:38.69    \nframe=  265 fps=2.7 q=30.0 size=    5120KiB time=00:00:04.40 bitrate=9532.5kbits/s speed=0.0443x elapsed=0:01:39.22    \nframe=  265 fps=2.7 q=30.0 size=    5120KiB time=00:00:04.40 bitrate=9532.5kbits/s speed=0.0441x elapsed=0:01:39.82    \nframe=  269 fps=2.7 q=31.0 size=    5120KiB time=00:00:04.46 bitrate=9390.2kbits/s speed=0.0445x elapsed=0:01:40.38    \nframe=  269 fps=2.7 q=31.0 size=    5120KiB time=00:00:04.46 bitrate=9390.2kbits/s speed=0.0442x elapsed=0:01:40.94    \nframe=  273 fps=2.7 q=22.0 size=    5120KiB time=00:00:04.53 bitrate=9252.1kbits/s speed=0.0447x elapsed=0:01:41.46    \nframe=  277 fps=2.7 q=31.0 size=    5120KiB time=00:00:04.60 bitrate=9118.1kbits/s speed=0.0451x elapsed=0:01:41.97    \nframe=  277 fps=2.7 q=31.0 size=    5120KiB time=00:00:04.60 bitrate=9118.1kbits/s speed=0.0449x elapsed=0:01:42.49    \nframe=  281 fps=2.7 q=30.0 size=    5120KiB time=00:00:04.66 bitrate=8987.8kbits/s speed=0.0453x elapsed=0:01:43.01    \nframe=  281 fps=2.7 q=30.0 size=    5120KiB time=00:00:04.66 bitrate=8987.8kbits/s speed=0.0451x elapsed=0:01:43.53    \nframe=  281 fps=2.7 q=30.0 size=    5120KiB time=00:00:04.66 bitrate=8987.8kbits/s speed=0.0448x elapsed=0:01:44.05    \nframe=  285 fps=2.7 q=32.0 size=    5120KiB time=00:00:04.73 bitrate=8861.2kbits/s speed=0.0453x elapsed=0:01:44.60    \nframe=  285 fps=2.7 q=32.0 size=    5120KiB time=00:00:04.73 bitrate=8861.2kbits/s speed=0.045x elapsed=0:01:45.13    \nframe=  285 fps=2.7 q=32.0 size=    5120KiB time=00:00:04.73 bitrate=8861.2kbits/s speed=0.0448x elapsed=0:01:45.65    \n[out#0/matroska @ 00000227785494c0] video:9032KiB audio:0KiB subtitle:0KiB other streams:0KiB global headers:0KiB muxing overhead: 0.024447%\nframe=  300 fps=2.8 q=32.0 Lsize=    9034KiB time=00:00:04.98 bitrate=14850.9kbits/s speed=0.0472x elapsed=0:01:45.68    \n",
  "seconds": 106.24610471725464,
  "probe_out": {}
}